<svg width="117" height="117" viewBox="0 0 95 104" fill="none" xmlns="http://www.w3.org/2000/svg">
<path d="M66.0547 13.8125C58.2617 13.8125 51.4855 17.6597 47.5 24.1069C43.5145 17.6597 36.7383 13.8125 28.9453 13.8125C23.0422 13.82 17.3829 16.3905 13.2087 20.9601C9.03461 25.5297 6.68656 31.7252 6.67969 38.1875C6.67969 50.05 13.4336 62.3959 26.7559 74.8759C32.8605 80.5706 39.4547 85.6045 46.4461 89.9072C46.7701 90.0978 47.1322 90.1975 47.5 90.1975C47.8678 90.1975 48.2299 90.0978 48.5539 89.9072C55.5453 85.6045 62.1395 80.5706 68.2441 74.8759C81.5664 62.3959 88.3203 50.05 88.3203 38.1875C88.3134 31.7252 85.9654 25.5297 81.7913 20.9601C77.6171 16.3905 71.9578 13.82 66.0547 13.8125ZM47.5 84.9509C41.4104 81.1037 11.1328 60.8237 11.1328 38.1875C11.1377 33.0174 13.016 28.0606 16.3554 24.4049C19.6948 20.7491 24.2227 18.6929 28.9453 18.6875C36.4711 18.6875 42.7908 23.0872 45.4404 30.1722C45.6082 30.6192 45.8935 31.0016 46.2603 31.2707C46.627 31.5398 47.0585 31.6835 47.5 31.6835C47.9415 31.6835 48.373 31.5398 48.7397 31.2707C49.1065 31.0016 49.3918 30.6192 49.5596 30.1722C52.2092 23.0872 58.5289 18.6875 66.0547 18.6875C70.7774 18.6929 75.3052 20.7491 78.6446 24.4049C81.984 28.0606 83.8623 33.0174 83.8672 38.1875C83.8672 60.8237 53.5896 81.1037 47.5 84.9509Z" fill="white"/>
</svg>