<svg width="46" height="46" viewBox="0 0 46 46" fill="none" xmlns="http://www.w3.org/2000/svg">
<path d="M14.25 36.175L23 29.51L31.75 36.1725L28.48 25.3375L37.1825 19.1725H26.52L23 7.8075L19.48 19.1725H8.8175L17.5175 25.3375L14.25 36.175ZM23.0075 45.5C19.8975 45.5 16.9725 44.91 14.2325 43.73C11.4942 42.5483 9.11167 40.945 7.085 38.92C5.05833 36.895 3.45417 34.515 2.2725 31.78C1.09083 29.045 0.5 26.1208 0.5 23.0075C0.5 19.8942 1.09 16.9692 2.27 14.2325C3.45 11.4958 5.05333 9.11334 7.08 7.085C9.10667 5.05667 11.4867 3.4525 14.22 2.2725C16.9533 1.0925 19.8775 0.50167 22.9925 0.500004C26.1075 0.498337 29.0325 1.08834 31.7675 2.27C34.5025 3.45167 36.885 5.055 38.915 7.08C40.945 9.105 42.5492 11.485 43.7275 14.22C44.9058 16.955 45.4967 19.8792 45.5 22.9925C45.5033 26.1058 44.9133 29.0308 43.73 31.7675C42.5467 34.5042 40.9433 36.8867 38.92 38.915C36.8967 40.9433 34.5167 42.5475 31.78 43.7275C29.0433 44.9075 26.1192 45.4983 23.0075 45.5ZM23 43C28.5833 43 33.3125 41.0625 37.1875 37.1875C41.0625 33.3125 43 28.5833 43 23C43 17.4167 41.0625 12.6875 37.1875 8.8125C33.3125 4.9375 28.5833 3 23 3C17.4167 3 12.6875 4.9375 8.8125 8.8125C4.9375 12.6875 3 17.4167 3 23C3 28.5833 4.9375 33.3125 8.8125 37.1875C12.6875 41.0625 17.4167 43 23 43Z" fill="white"/>
</svg>