<svg width="55" height="30" viewBox="0 0 55 30" fill="none" xmlns="http://www.w3.org/2000/svg">
<path d="M29.7618 29.1419L54.5114 3.13843C54.7968 2.83833 54.964 2.48716 54.9948 2.12292C55.0255 1.75868 54.9187 1.39525 54.6859 1.072C54.4531 0.748754 54.1031 0.477993 53.6739 0.289036C53.2447 0.100078 52.7526 0.000126971 52.2509 3.8147e-06L2.75172 3.8147e-06C2.24979 -0.000238109 1.75734 0.0994463 1.32774 0.288258C0.898141 0.477069 0.547781 0.747803 0.314628 1.07112C0.0814744 1.39444 -0.0255784 1.758 0.00507168 2.12242C0.0357218 2.48683 0.202906 2.83819 0.488504 3.13843L25.2381 29.1419C25.4923 29.4068 25.8306 29.6232 26.2244 29.7726C26.6182 29.922 27.0558 30 27.4999 30C27.9441 30 28.3816 29.922 28.7754 29.7726C29.1692 29.6232 29.5076 29.4068 29.7618 29.1419Z" fill="#20253F"/>
</svg>
