<svg width="24" height="24" viewBox="0 0 24 24" fill="none" xmlns="http://www.w3.org/2000/svg">
  <path d="M9.7158 7.2958C9.62284 7.20207 9.51223 7.12768 9.39038 7.07691C9.26852 7.02614 9.13781 7 9.0058 7C8.87379 7 8.74308 7.02614 8.62122 7.07691C8.49936 7.12768 8.38876 7.20207 8.2958 7.2958L3.2958 12.2958C3.20207 12.3888 3.12768 12.4994 3.07691 12.6212C3.02614 12.7431 3 12.8738 3 13.0058C3 13.1378 3.02614 13.2685 3.07691 13.3904C3.12768 13.5122 3.20207 13.6228 3.2958 13.7158L8.2958 18.7158C8.38876 18.8095 8.49936 18.8839 8.62122 18.9347C8.74308 18.9855 8.87379 19.0116 9.0058 19.0116C9.13781 19.0116 9.26852 18.9855 9.39038 18.9347C9.51223 18.8839 9.62284 18.8095 9.7158 18.7158C9.80953 18.6228 9.88392 18.5122 9.93469 18.3904C9.98546 18.2685 10.0116 18.1378 10.0116 18.0058C10.0116 17.8738 9.98546 17.7431 9.93469 17.6212C9.88392 17.4994 9.80953 17.3888 9.7158 17.2958L5.4158 13.0058L9.7158 8.7158C9.80953 8.62284 9.88392 8.51223 9.93469 8.39038C9.98546 8.26852 10.0116 8.13781 10.0116 8.0058C10.0116 7.87379 9.98546 7.74308 9.93469 7.62122C9.88392 7.49936 9.80953 7.38876 9.7158 7.2958Z" fill="#20253F"/>
</svg>
