<svg version="1.0" xmlns="http://www.w3.org/2000/svg"
 width="345.000000pt" height="324.000000pt" viewBox="0 0 345.000000 324.000000"
 preserveAspectRatio="xMidYMid meet">

<g transform="translate(0.000000,324.000000) scale(0.100000,-0.100000)"
fill="#FFFFFF" stroke="#FFFFFF">
<path d="M1575 3024 c-380 -60 -691 -289 -850 -627 -73 -155 -95 -265 -105
-527 -16 -407 -82 -736 -191 -952 -57 -113 -27 -228 73 -279 34 -17 63 -19
360 -19 l323 0 23 -71 c72 -229 273 -379 507 -379 240 0 456 167 516 399 l13
51 323 0 c302 0 326 1 362 20 53 27 87 71 100 128 12 58 9 76 -35 169 -106
223 -165 534 -184 954 -10 230 -16 273 -55 390 -119 356 -403 619 -773 716
-76 19 -127 26 -237 28 -77 2 -153 1 -170 -1z m254 -164 c193 -25 375 -110
517 -243 119 -112 191 -217 244 -359 39 -105 50 -183 60 -403 18 -411 80 -732
187 -966 19 -43 33 -85 30 -94 -6 -13 -130 -15 -1152 -15 -984 0 -1146 2
-1151 14 -3 8 10 48 29 88 67 142 130 378 162 608 9 63 20 215 25 336 10 244
25 340 73 454 127 309 396 525 717 575 108 17 155 18 259 5z m241 -2257 c-1
-70 -107 -195 -203 -239 -54 -25 -74 -29 -152 -29 -77 0 -98 4 -147 27 -31 14
-77 45 -102 68 -42 39 -106 145 -106 177 0 11 65 13 355 13 332 0 355 -1 355
-17z"/>
</g>
</svg>
