<svg width="62" height="71" viewBox="0 0 62 71" fill="none" xmlns="http://www.w3.org/2000/svg">
<path d="M10.1031 1.88904L15.7771 0.409807C18.36 -0.26465 21.1382 -0.102503 23.5931 0.86598C26.048 1.83446 28.0118 3.54309 29.1179 5.6729L32.6488 12.4714C33.6002 14.3029 33.8652 16.3462 33.4067 18.3147C32.9482 20.2832 31.7891 22.078 30.092 23.4473L23.9224 28.4264C23.8462 28.488 23.7836 28.5612 23.7378 28.6424C23.0918 29.7843 24.0728 32.8345 27.1457 37.4438C30.6116 42.6388 33.288 44.692 34.5287 44.3754L42.6262 42.2306C44.8438 41.6444 47.2177 41.6736 49.4152 42.314C51.6127 42.9543 53.5236 44.1738 54.88 45.8014L59.8978 51.816C61.4731 53.7044 62.2028 56.0237 61.9514 58.3428C61.6999 60.6619 60.4843 62.8231 58.5305 64.4249L54.2135 67.9603C52.7123 69.191 50.8893 70.0892 48.9002 70.5781C46.911 71.0669 44.8148 71.1321 42.7902 70.7678C30.7688 68.6022 19.9984 60.2239 10.3868 45.8162C0.771681 31.3996 -2.22598 19.122 1.63646 9.02483C2.28301 7.33438 3.39018 5.80347 4.86442 4.56146C6.33867 3.31944 8.13324 2.40282 10.1031 1.88904ZM11.5899 6.13738C10.408 6.44551 9.3291 6.99536 8.44444 7.74046C7.55977 8.48557 6.89532 9.40404 6.50723 10.4183C3.17801 19.1191 5.87489 30.1719 14.8303 43.5974C23.7788 57.014 33.4794 64.558 43.8396 66.4219C45.0544 66.6401 46.3121 66.6007 47.5055 66.307C48.6988 66.0134 49.7924 65.4742 50.6929 64.7355L55.0065 61.2031C56.0589 60.3408 56.7139 59.1772 56.8497 57.9284C56.9855 56.6796 56.5929 55.4306 55.7448 54.4135L50.727 48.396C49.9968 47.5197 48.968 46.8632 47.7851 46.5184C46.6021 46.1735 45.3241 46.1577 44.1301 46.473L36.0122 48.6238C31.5208 49.7805 27.296 46.541 22.709 39.6597C18.8226 33.8374 17.4759 29.6305 19.1371 26.6927C19.4584 26.1247 19.8959 25.6129 20.4291 25.181L26.5988 20.2019C27.5129 19.4646 28.1373 18.498 28.3844 17.4379C28.6314 16.3777 28.4887 15.2772 27.9762 14.2909L24.4419 7.49531C23.8464 6.3482 22.7887 5.42794 21.4666 4.90638C20.1444 4.38483 18.6481 4.29764 17.2571 4.66111L11.5899 6.13738Z" fill="white"/>
</svg>