<svg width="24" height="24" viewBox="0 0 24 24" fill="none" xmlns="http://www.w3.org/2000/svg">
  <path d="M20.7158 12.2958L15.7158 7.2958C15.6226 7.20256 15.5119 7.1286 15.39 7.07814C15.2682 7.02768 15.1377 7.00171 15.0058 7.00171C14.7395 7.00171 14.4841 7.10749 14.2958 7.2958C14.2026 7.38904 14.1286 7.49973 14.0781 7.62155C14.0277 7.74337 14.0017 7.87394 14.0017 8.0058C14.0017 8.2721 14.1075 8.52749 14.2958 8.7158L18.5958 13.0058L14.2958 17.2958C14.2021 17.3888 14.1277 17.4994 14.0769 17.6212C14.0261 17.7431 14 17.8738 14 18.0058C14 18.1378 14.0261 18.2685 14.0769 18.3904C14.1277 18.5122 14.2021 18.6228 14.2958 18.7158C14.3888 18.8095 14.4994 18.8839 14.6212 18.9347C14.7431 18.9855 14.8738 19.0116 15.0058 19.0116C15.1378 19.0116 15.2685 18.9855 15.3904 18.9347C15.5122 18.8839 15.6228 18.8095 15.7158 18.7158L20.7158 13.7158C20.8095 13.6228 20.8839 13.5122 20.9347 13.3904C20.9855 13.2685 21.0116 13.1378 21.0116 13.0058C21.0116 12.8738 20.9855 12.7431 20.9347 12.6212C20.8839 12.4994 20.8095 12.3888 20.7158 12.2958Z" fill="#20253F"/>
</svg>
