<svg width="117" height="117" viewBox="0 0 96 92" fill="none" xmlns="http://www.w3.org/2000/svg">
<path d="M61.5703 68.9999L62.2637 82.4763L48.0396 73.0033L33.7358 82.4853L34.4297 68.9999H28.4224L27.387 89.1249H34.2668L48.0317 80.0004L61.7329 89.1249H68.613L67.5776 68.9999H61.5703ZM77.8892 27.836L77.4778 19.2013L69.8813 14.5425L65.019 7.26178L56.0087 6.86647L48 2.8916L39.9913 6.86737L30.981 7.26268L26.1188 14.5425L18.5222 19.2013L18.1108 27.836L13.962 35.5112L18.1108 43.1865L18.5233 51.8211L26.1188 56.4798L30.9803 63.7607L39.9906 64.1552L48 68.1309L56.0087 64.1552L65.019 63.7607L69.8805 56.4798L77.4776 51.8218L77.8892 43.1872L82.038 35.5119L77.8892 27.836ZM71.9556 41.6628L71.625 48.5833L65.5359 52.3172L61.6397 58.1525L54.4181 58.4688L48 61.6552L41.5811 58.4688L34.3596 58.1525L30.4633 52.3172L24.375 48.5833L24.0452 41.6628L20.7188 35.5112L24.0444 29.3608L24.375 22.4393L30.4633 18.7054L34.3596 12.8702L41.5811 12.5539L48 9.36736L54.4189 12.5538L61.6404 12.87L65.5367 18.7052L71.625 22.4393L71.9548 29.3599L75.2813 35.5112L71.9556 41.6628Z" fill="#F8F9FA"/>
</svg>