<svg width="56" height="31" viewBox="0 0 56 31" fill="none" xmlns="http://www.w3.org/2000/svg">
<path d="M25.7384 1.35856L0.988756 27.3621C0.703291 27.6622 0.536127 28.0133 0.505366 28.3776C0.474605 28.7418 0.581415 29.1052 0.814238 29.4285C1.04706 29.7517 1.39702 30.0225 1.82623 30.2115C2.25543 30.4004 2.74752 30.5004 3.24922 30.5005L52.7484 30.5005C53.2503 30.5007 53.7428 30.401 54.1724 30.2122C54.602 30.0234 54.9523 29.7527 55.1855 29.4294C55.4186 29.1061 55.5257 28.7425 55.4951 28.3781C55.4644 28.0137 55.2972 27.6623 55.0116 27.3621L30.262 1.35856C30.0078 1.09364 29.6695 0.877286 29.2757 0.727894C28.8819 0.578502 28.4443 0.500488 28.0002 0.500488C27.5561 0.500488 27.1185 0.578502 26.7247 0.727894C26.3309 0.877286 25.9925 1.09364 25.7384 1.35856Z" fill="#20253F"/>
</svg>
