<svg width="721" height="668" viewBox="0 0 721 668" fill="none" xmlns="http://www.w3.org/2000/svg">
<path fill-rule="evenodd" clip-rule="evenodd" d="M307.831 50.5781C370.893 55.0999 441.105 -0.369714 492.319 36.4255C543.52 73.2119 504.379 160.612 536.325 214.742C584.166 295.802 730.892 327.876 719.356 421.115C708.688 507.342 570.493 499.945 495.495 544.752C429.784 584.01 384.51 668.716 307.831 666.974C231.239 665.233 167.611 600.397 126.311 536.36C92.1756 483.433 127.085 412.746 105.717 353.591C83.1473 291.114 1.54802 255.853 1.00658 189.484C0.428688 118.648 37.9583 37.9039 102.901 8.50279C167.958 -20.9498 236.511 45.4641 307.831 50.5781Z" stroke="black"/>
</svg>
