<svg width="676" height="644" viewBox="0 0 676 644" fill="none" xmlns="http://www.w3.org/2000/svg">
<path fill-rule="evenodd" clip-rule="evenodd" d="M288.481 47.9403C347.772 52.3128 413.784 -1.32447 461.935 34.2553C510.075 69.8265 473.274 154.34 503.31 206.681C548.289 285.064 686.241 316.078 675.395 406.238C665.364 489.616 535.434 482.464 464.921 525.79C403.14 563.751 360.575 645.66 288.481 643.974C216.469 642.291 156.647 579.597 117.817 517.676C85.7228 466.496 118.545 398.144 98.4539 340.944C77.2345 280.53 0.515245 246.434 0.00618395 182.258C-0.537144 113.762 34.748 35.6849 95.807 7.25495C156.973 -21.2248 221.426 42.9953 288.481 47.9403Z" fill="url(#paint0_linear_115_312)"/>
<defs>
<linearGradient id="paint0_linear_115_312" x1="533" y1="2.59001e-05" x2="304" y2="411.5" gradientUnits="userSpaceOnUse">
<stop offset="0.0875309" stop-color="#176D45"/>
<stop offset="1" stop-color="#19253E"/>
</linearGradient>
</defs>
</svg>
